<!--?xml version="1.0" standalone="no"?-->
              <svg id="sw-js-blob-svg" viewBox="0 0 100 100" xmlns="http://www.w3.org/2000/svg" version="1.1">
                    <defs> 
                        <linearGradient id="sw-gradient" x1="0" x2="1" y1="1" y2="0">
                            <stop id="stop1" stop-color="rgba(248, 117, 55, 1)" offset="0%"></stop>
                            <stop id="stop2" stop-color="rgba(251, 168, 31, 1)" offset="100%"></stop>
                        </linearGradient>
                    </defs>
                <path fill="url(#sw-gradient)" d="M13.5,-21.2C17.3,-21.1,20.2,-17.2,23.4,-13.1C26.6,-8.9,30.1,-4.5,26.8,-1.9C23.4,0.6,13.2,1.1,10.8,6.8C8.5,12.4,14,23.2,13.5,30.1C13,37,6.5,40.1,1.8,36.9C-2.8,33.7,-5.7,24.2,-12.7,21.1C-19.8,18,-31.1,21.2,-33.6,18.8C-36.1,16.3,-29.8,8.2,-24.3,3.2C-18.7,-1.7,-13.8,-3.5,-13.2,-9.2C-12.7,-15,-16.3,-24.9,-14.9,-26.3C-13.4,-27.8,-6.7,-20.8,-0.9,-19.2C4.8,-17.6,9.6,-21.3,13.5,-21.2Z" width="100%" height="100%" transform="translate(50 50)" stroke-width="0" style="transition: all 0.3s ease 0s;"></path>
              </svg>