<!--?xml version="1.0" standalone="no"?-->
              <svg id="sw-js-blob-svg" viewBox="0 0 100 100" xmlns="http://www.w3.org/2000/svg" version="1.1">
                    <defs> 
                        <linearGradient id="sw-gradient" x1="0" x2="1" y1="1" y2="0">
                            <stop id="stop1" stop-color="rgba(232, 71, 71, 1)" offset="0%"></stop>
                            <stop id="stop2" stop-color="rgba(153, 0, 0, 1)" offset="80%"></stop>
                        </linearGradient>
                    </defs>
                <path fill="url(#sw-gradient)" d="M18.4,-23C23.6,-17.6,27.4,-11.5,30.5,-3.9C33.6,3.7,35.9,12.9,32.8,19.5C29.6,26.1,21,30,11.9,33.9C2.7,37.8,-6.9,41.5,-14.8,39.3C-22.7,37,-29,28.7,-32.5,20C-35.9,11.4,-36.6,2.4,-35.3,-6.4C-34,-15.3,-30.7,-24,-24.5,-29.2C-18.3,-34.5,-9.1,-36.3,-1.3,-34.8C6.6,-33.3,13.2,-28.4,18.4,-23Z" width="100%" height="100%" transform="translate(50 50)" stroke-width="0" style="transition: all 0.3s ease 0s;"></path>
              </svg>