<svg id="visual" viewBox="0 0 960 170" width="960" height="170" xmlns="http://www.w3.org/2000/svg" xmlns:xlink="http://www.w3.org/1999/xlink" version="1.1"><rect x="0" y="0" width="960" height="540" fill="#E84747"></rect><path d="M0 95L26.7 90.7C53.3 86.3 106.7 77.7 160 78.8C213.3 80 266.7 91 320 104.3C373.3 117.7 426.7 133.3 480 130.5C533.3 127.7 586.7 106.3 640 99C693.3 91.7 746.7 98.3 800 109.2C853.3 120 906.7 135 933.3 142.5L960 150L960 0L933.3 0C906.7 0 853.3 0 800 0C746.7 0 693.3 0 640 0C586.7 0 533.3 0 480 0C426.7 0 373.3 0 320 0C266.7 0 213.3 0 160 0C106.7 0 53.3 0 26.7 0L0 0Z" fill="#2B2E4A" stroke-linecap="round" stroke-linejoin="miter"></path></svg>