<svg xmlns="http://www.w3.org/2000/svg" xmlns:xlink="http://www.w3.org/1999/xlink" xmlns:fi="http://pattern.flaticon.com/" x="0" y="0" width="110" height="110" viewBox="0 0 962.5 962.5"><rect x="0px" y="0px" width="100%" height="100%" opacity="1" fill="#E84747"/><defs><g transform="matrix(0.1171875 0 0 0.1171875 346 225)" id="L1_3"><path d="m270.449219 400.128906c0-20.527344-16.703125-37.230468-37.230469-37.230468-20.53125 0-37.230469 16.703124-37.230469 37.230468s16.703125 37.226563 37.230469 37.226563 37.230469-16.699219 37.230469-37.226563zm-59.460938 0c0-12.257812 9.972657-22.230468 22.230469-22.230468s22.230469 9.972656 22.230469 22.230468c0 12.257813-9.972657 22.226563-22.230469 22.226563s-22.230469-9.96875-22.230469-22.226563zm0 0"/><path d="m140.527344 315.757812c-20.527344 0-37.226563 16.699219-37.226563 37.226563s16.699219 37.230469 37.226563 37.230469c20.53125 0 37.230468-16.703125 37.230468-37.230469s-16.699218-37.226563-37.230468-37.226563zm0 59.457032c-12.253906 0-22.226563-9.972656-22.226563-22.230469s9.972657-22.226563 22.226563-22.226563c12.257812 0 22.230468 9.96875 22.230468 22.226563s-9.972656 22.230469-22.230468 22.230469zm0 0"/><path d="m164.992188 162.625c-20.53125 0-37.230469 16.703125-37.230469 37.230469 0 20.527343 16.699219 37.230469 37.230469 37.230469 20.527343 0 37.226562-16.703126 37.226562-37.230469 0-20.527344-16.699219-37.230469-37.226562-37.230469zm0 59.460938c-12.257813 0-22.230469-9.972657-22.230469-22.230469 0-12.257813 9.972656-22.230469 22.230469-22.230469 12.253906 0 22.226562 9.972656 22.226562 22.230469 0 12.257812-9.96875 22.230469-22.226562 22.230469zm0 0"/><path d="m264.640625 99.117188c0-20.527344-16.703125-37.230469-37.230469-37.230469s-37.226562 16.703125-37.226562 37.230469c0 20.527343 16.699218 37.230468 37.226562 37.230468s37.230469-16.703125 37.230469-37.230468zm-59.460937 0c0-12.257813 9.972656-22.230469 22.230468-22.230469 12.257813 0 22.230469 9.972656 22.230469 22.230469 0 12.257812-9.972656 22.230468-22.230469 22.230468-12.257812 0-22.230468-9.972656-22.230468-22.230468zm0 0"/><path d="m395.230469 135.914062c0-12.332031-10.03125-22.363281-22.363281-22.363281-12.332032 0-22.367188 10.03125-22.367188 22.363281 0 12.332032 10.035156 22.363282 22.367188 22.363282 12.332031 0 22.363281-10.03125 22.363281-22.363282zm-29.730469 0c0-4.0625 3.304688-7.363281 7.367188-7.363281s7.363281 3.300781 7.363281 7.363281-3.300781 7.363282-7.363281 7.363282-7.367188-3.300782-7.367188-7.363282zm0 0"/><path d="m325.027344 190.75c-12.332032 0-22.363282 10.03125-22.363282 22.363281s10.03125 22.367188 22.363282 22.367188c12.332031 0 22.367187-10.035157 22.367187-22.367188s-10.035156-22.363281-22.367187-22.363281zm0 29.730469c-4.058594 0-7.363282-3.304688-7.363282-7.367188 0-4.058593 3.304688-7.363281 7.363282-7.363281 4.0625 0 7.367187 3.304688 7.367187 7.363281 0 4.0625-3.304687 7.367188-7.367187 7.367188zm0 0"/><path d="m307.589844 113.683594c12.332031 0 22.363281-10.03125 22.363281-22.363282 0-12.332031-10.03125-22.367187-22.363281-22.367187-12.332032 0-22.363282 10.035156-22.363282 22.367187 0 12.332032 10.03125 22.363282 22.363282 22.363282zm0-29.730469c4.058594 0 7.363281 3.304687 7.363281 7.367187s-3.304687 7.363282-7.363281 7.363282c-4.0625 0-7.363282-3.304688-7.363282-7.363282 0-4.0625 3.300782-7.367187 7.363282-7.367187zm0 0"/><path d="m233.164062 173.5625c0 12.332031 10.035157 22.367188 22.367188 22.367188s22.363281-10.035157 22.363281-22.367188-10.03125-22.363281-22.363281-22.363281c-12.335938 0-22.367188 10.03125-22.367188 22.363281zm29.730469 0c0 4.0625-3.304687 7.367188-7.367187 7.367188-4.058594 0-7.363282-3.304688-7.363282-7.367188 0-4.058594 3.304688-7.363281 7.363282-7.363281 4.0625 0 7.367187 3.304687 7.367187 7.363281zm0 0"/><path d="m88.960938 196.75c-12.332032 0-22.363282 10.03125-22.363282 22.363281s10.03125 22.367188 22.363282 22.367188c12.332031 0 22.363281-10.035157 22.363281-22.367188s-10.03125-22.363281-22.363281-22.363281zm0 29.730469c-4.0625 0-7.363282-3.304688-7.363282-7.367188 0-4.058593 3.300782-7.363281 7.363282-7.363281 4.058593 0 7.363281 3.304688 7.363281 7.363281 0 4.0625-3.304688 7.367188-7.363281 7.367188zm0 0"/><path d="m174.332031 311.992188c12.332031 0 22.363281-10.03125 22.363281-22.363282 0-12.332031-10.035156-22.367187-22.363281-22.367187-12.332031 0-22.367187 10.035156-22.367187 22.367187 0 12.332032 10.035156 22.363282 22.367187 22.363282zm0-29.730469c4.058594 0 7.363281 3.304687 7.363281 7.367187 0 4.058594-3.304687 7.363282-7.363281 7.363282-4.0625 0-7.367187-3.304688-7.367187-7.363282 0-4.0625 3.304687-7.367187 7.367187-7.367187zm0 0"/><path d="m140.5 151.222656c2.105469 0 4.226562-.300781 6.304688-.910156 11.835937-3.460938 18.652343-15.902344 15.191406-27.742188-1.675782-5.730468-5.484375-10.472656-10.722656-13.339843-5.242188-2.871094-11.285157-3.527344-17.019532-1.851563-11.835937 3.460938-18.652344 15.902344-15.191406 27.738282 1.675781 5.734374 5.484375 10.476562 10.722656 13.34375 3.339844 1.828124 7.007813 2.761718 10.714844 2.761718zm-2.035156-29.445312c.683594-.199219 1.382812-.300782 2.074218-.300782 1.222657 0 2.429688.308594 3.527344.910157 1.726563.945312 2.980469 2.503906 3.53125 4.394531 1.140625 3.898438-1.105468 7.996094-5 9.132812-1.890625.550782-3.878906.335938-5.605468-.609374-1.722657-.945313-2.976563-2.503907-3.53125-4.394532-1.140626-3.894531 1.105468-7.992187 5.003906-9.132812zm0 0"/><path d="m116.679688 300.59375c0-12.332031-10.035157-22.363281-22.367188-22.363281s-22.363281 10.03125-22.363281 22.363281 10.03125 22.367188 22.363281 22.367188c12.332031-.003907 22.367188-10.035157 22.367188-22.367188zm-22.367188 7.363281c-4.058594 0-7.363281-3.304687-7.363281-7.363281 0-4.0625 3.304687-7.367188 7.363281-7.367188 4.0625 0 7.367188 3.304688 7.367188 7.367188 0 4.058594-3.304688 7.363281-7.367188 7.363281zm0 0"/><path d="m303.671875 437.355469c12.332031 0 22.363281-10.03125 22.363281-22.363281 0-12.332032-10.03125-22.363282-22.363281-22.363282s-22.363281 10.03125-22.363281 22.363282c0 12.332031 10.03125 22.363281 22.363281 22.363281zm0-29.726563c4.0625 0 7.363281 3.304688 7.363281 7.363282 0 4.0625-3.300781 7.363281-7.363281 7.363281-4.058594 0-7.363281-3.300781-7.363281-7.363281 0-4.058594 3.304687-7.363282 7.363281-7.363282zm0 0"/><path d="m255.527344 352.6875c12.332031 0 22.367187-10.03125 22.367187-22.363281s-10.035156-22.363281-22.367187-22.363281c-12.332032 0-22.363282 10.03125-22.363282 22.363281s10.03125 22.363281 22.363282 22.363281zm0-29.730469c4.0625 0 7.367187 3.304688 7.367187 7.367188 0 4.058593-3.304687 7.363281-7.367187 7.363281-4.058594 0-7.363282-3.304688-7.363282-7.363281 0-4.0625 3.304688-7.367188 7.363282-7.367188zm0 0"/><path d="m398.128906 164.625c-20.527344 0-37.226562 16.703125-37.226562 37.230469 0 20.527343 16.699218 37.230469 37.226562 37.230469s37.230469-16.703126 37.230469-37.230469c0-20.527344-16.703125-37.230469-37.230469-37.230469zm0 59.460938c-12.257812 0-22.226562-9.972657-22.226562-22.230469 0-12.257813 9.96875-22.230469 22.226562-22.230469 12.257813 0 22.230469 9.972656 22.230469 22.230469 0 12.257812-9.972656 22.230469-22.230469 22.230469zm0 0"/><path d="m511.015625 239.636719c-5.050781-79.984375-47.402344-152.574219-113.582031-196.730469-4.96875-3.3125-11.128906-4.484375-16.984375-3.257812-1.851563-5.679688-5.925781-10.441407-11.269531-13.089844-35.503907-17.625-73.742188-26.558594-113.652344-26.558594-39.90625 0-78.144532 8.933594-113.652344 26.558594-5.339844 2.652344-9.414062 7.410156-11.265625 13.089844-5.855469-1.226563-12.019531-.054688-16.988281 3.257812-66.117188 44.117188-108.523438 116.679688-113.5781252 196.730469-.3749998 5.972656 1.6992192 11.902343 5.6914062 16.363281-3.996094 4.460938-6.066406 10.390625-5.6914062 16.363281 5.0507812 79.984375 47.4023432 152.574219 113.5820312 196.730469 4.789062 3.195312 10.890625 4.535156 16.984375 3.257812 1.851563 5.679688 5.925781 10.441407 11.269531 13.09375 35.503906 17.621094 73.742188 26.554688 113.648438 26.554688 39.910156 0 78.148437-8.933594 113.652344-26.558594 11.574218-5.742187 15.839843-20.160156 9.378906-31.351562l-110.039063-190.589844h80.507813v42.5625c0 13.800781 10.878906 26.03125 26.507812 26.03125 14.71875 0 26.695313-11.933594 26.695313-26.601562v-6.878907c0-2.425781 1.972656-4.398437 4.398437-4.398437 2.425782 0 4.398438 1.972656 4.398438 4.398437v53.457031c0 12.171876 9.902344 22.070313 22.074218 22.070313 12.167969 0 22.070313-9.898437 22.070313-22.070313v-88.570312h33.375c12.960937 0 23.28125-10.953125 22.46875-23.863281zm-386.476563 172.480469c-8.359374-7.023438-14.003906-18.105469-22.0625-27.699219-8.046874-9.578125-17.976562-17.03125-23.464843-26.515625-5.429688-9.378906-6.964844-21.714844-11.273438-33.554688-4.25-11.671875-11.023437-22.042968-12.929687-32.945312-1.480469-8.441406.003906-17.851563.660156-27.902344h187.070312l-93.554687 162.035156c-9-4.4375-17.808594-7.84375-24.445313-13.417968zm-69.730468-191.519532c1.90625-10.902344 8.679687-21.273437 12.929687-32.945312 4.3125-11.851563 5.84375-24.171875 11.273438-33.554688 5.484375-9.484375 15.421875-16.941406 23.464843-26.515625 8.066407-9.609375 13.699219-20.671875 22.0625-27.699219 6.636719-5.574218 15.449219-8.984374 24.449219-13.421874l39.464844 68.359374c2.070313 3.585938 6.660156 4.816407 10.246094 2.746094 3.585937-2.070312 4.816406-6.660156 2.746093-10.246094l-39.476562-68.375c8.289062-5.570312 15.613281-11.5 23.84375-14.496093 10.128906-3.6875 22.539062-3.050781 35.003906-5.230469 12.1875-2.136719 23.5625-7.003906 34.710938-7.003906 11.152344 0 22.527344 4.867187 34.714844 7.003906 12.464843 2.179688 24.878906 1.542969 35.003906 5.230469 8.226562 2.996093 15.546875 8.921875 23.84375 14.496093l-93.5625 162.054688-36.582032-63.367188c-2.074218-3.585937-6.660156-4.816406-10.246093-2.746093-3.585938 2.074219-4.816407 6.660156-2.746094 10.246093l36.585937 63.367188h-187.066406c-.660156-10.050781-2.144531-19.460938-.664062-27.902344zm93.738281-180.605468c33.414063-16.582032 69.410156-24.992188 106.980469-24.992188 37.574218 0 73.570312 8.410156 106.984375 24.992188 3.8125 1.890624 5.214843 6.679687 3.054687 10.417968l-8.957031 15.511719c-8.257813-5.621094-16.265625-11.9375-26.234375-15.566406-12.492188-4.546875-25.765625-3.847657-37.546875-5.914063-11.421875-1.996094-23.644531-7.226562-37.300781-7.226562-13.652344 0-25.878906 5.230468-37.296875 7.226562-11.777344 2.066406-25.054688 1.363282-37.550781 5.914063-9.964844 3.628906-17.953126 9.929687-26.230469 15.566406-.066407-.113281-8.953125-15.503906-8.953125-15.503906-.003906-.003907-.003906-.007813-.003906-.007813-2.15625-3.734375-.761719-8.523437 3.054687-10.417968zm-133.53125 200.585937c4.695313-74.421875 44.671875-143.652344 106.933594-185.195313 3.542969-2.363281 8.402343-1.199218 10.566406 2.550782l8.953125 15.507812c-9.015625 4.378906-18.507812 8.179688-26.578125 14.957032-10.285156 8.640624-16.304687 20.496093-23.902344 29.539062-7.574219 9.015625-18.214843 16.988281-24.960937 28.648438-6.6875 11.558593-8.3125 24.746093-12.382813 35.933593-3.996093 10.976563-11.269531 22.109375-13.613281 35.492188-1.800781 10.285156-.316406 20.429687.402344 30.488281h-17.925782c-4.328124 0-7.765624-3.632812-7.492187-7.921875zm106.933594 216.035156c-62.261719-41.539062-102.238281-110.769531-106.933594-185.195312-.273437-4.285157 3.164063-7.917969 7.496094-7.917969h17.921875c-.71875 10.074219-2.203125 20.203125-.402344 30.488281 2.34375 13.382813 9.617188 24.519531 13.613281 35.492188 4.070313 11.183593 5.699219 24.375 12.382813 35.933593 6.746094 11.65625 17.390625 19.632813 24.964844 28.652344 7.597656 9.042969 13.617187 20.898438 23.902343 29.535156 8.0625 6.777344 17.550781 10.574219 26.574219 14.957032l-8.953125 15.503906c-2.152344 3.734375-7.003906 4.929688-10.566406 2.550781zm240.5625 15.394531c-33.414063 16.582032-69.410157 24.992188-106.984375 24.992188-37.574219 0-73.566406-8.410156-106.980469-24.992188-3.8125-1.894531-5.214844-6.679687-3.054687-10.417968l8.957031-15.511719c8.261719 5.625 16.265625 11.9375 26.230469 15.566406 3.886718 1.417969 8.195312-.585937 9.613281-4.484375 1.417969-3.890625-.589844-8.195312-4.480469-9.609375-8.226562-2.996093-15.550781-8.921875-23.84375-14.5l93.558594-162.050781 93.5625 162.050781c-8.296875 5.578125-15.617188 11.503907-23.84375 14.5-10.128906 3.6875-22.539063 3.046875-35.003906 5.230469-12.1875 2.132812-23.5625 7.003906-34.714844 7.003906-11.890625 0-23.566406-5.433594-37.550782-7.457031-4.101562-.589844-7.902343 2.253906-8.496093 6.351563-.589844 4.101562 2.253906 7.90625 6.351562 8.496093 12.925781 1.867188 25.25 7.609375 39.695313 7.609375 13.65625 0 25.875-5.226562 37.300781-7.226562 11.773437-2.0625 25.050781-1.363282 37.550781-5.914063 9.960938-3.625 17.957032-9.929687 26.230469-15.566406l8.957031 15.511719c2.15625 3.734375.761719 8.523437-3.054687 10.417968zm85.160156-223.507812c-4.140625 0-7.5 3.359375-7.5 7.5v96.070312c0 3.898438-3.171875 7.070313-7.070313 7.070313-3.898437 0-7.070312-3.171875-7.070312-7.070313v-53.457031c0-10.699219-8.703125-19.398437-19.402344-19.398437-10.695312 0-19.398437 8.699218-19.398437 19.398437v6.878907c0 5.980468-4.664063 11.601562-12.171875 11.601562-6.097656 0-11.03125-4.933594-11.03125-11.03125l.003906-42.5625h56.714844c4.140625 0 7.5-3.359375 7.5-7.5s-3.359375-7.5-7.5-7.5h-152.226563l93.550781-162.035156c8.988282 4.429687 17.808594 7.839844 24.449219 13.417968 8.363281 7.023438 14 18.101563 22.0625 27.699219 8.046875 9.578125 17.976563 17.027344 23.464844 26.515625 5.429687 9.378906 6.960937 21.714844 11.273437 33.554688 4.25 11.671875 11.019532 22.042968 12.929688 32.945312 1.480469 8.441406-.003906 17.851563-.664062 27.902344zm40.875 0h-17.921875c.71875-10.074219 2.203125-20.203125.402344-30.488281-2.34375-13.382813-9.617188-24.519531-13.613282-35.492188-4.066406-11.179687-5.699218-24.378906-12.382812-35.933593-6.746094-11.660157-17.394531-19.640626-24.964844-28.652344-7.589844-9.039063-13.617187-20.898438-23.898437-29.535156-8.066407-6.773438-17.546875-10.570313-26.578125-14.957032l8.953125-15.507812c2.164062-3.75 7.027343-4.914063 10.566406-2.550782 62.261719 41.542969 102.238281 110.773438 106.933594 185.195313.273437 4.296875-3.171875 7.921875-7.496094 7.921875zm0 0"/></g><g transform="matrix(0.14427828788757324 0 0 0.14427828788757324 159 32)" id="L1_5"><path d="M397.121,328.924v-24.293c8.827-6.307,14.598-16.629,14.598-28.28s-5.771-21.974-14.598-28.281v-26.052v-27.587   c9.684-3.828,16.557-13.276,16.557-24.306C413.677,76.318,337.359,0,243.552,0h-71.24C78.504,0,2.186,76.318,2.186,170.126   c0,11.029,6.872,20.478,16.557,24.306v27.587v26.052C9.915,254.377,4.145,264.7,4.145,276.351s5.771,21.974,14.598,28.28v24.293   c-9.921,6.067-16.557,17.001-16.557,29.457c0,31.696,25.786,57.482,57.482,57.482h296.528c31.696,0,57.482-25.786,57.482-57.482   C413.677,345.925,407.042,334.991,397.121,328.924z M234.277,215.019v-18.762h74v18.762H234.277z M32.742,215.019v-18.762h187.535   v18.762H32.742z M322.277,196.256h60.844v18.762h-60.844V196.256z M172.312,14h71.24c86.088,0,156.126,70.038,156.126,156.126   c0,6.688-5.442,12.13-12.13,12.13h-72.27h-88H28.316c-6.688,0-12.13-5.442-12.13-12.13C16.186,84.038,86.223,14,172.312,14z    M32.742,241.8v-12.781h194.535h88h67.844V241.8h-221.53c-1.856,0-3.637,0.737-4.95,2.05l-27.352,27.353l-27.353-27.353   c-1.313-1.313-3.093-2.05-4.95-2.05H32.742z M36.203,255.8h57.884l30.252,30.252c1.313,1.313,3.093,2.05,4.95,2.05   s3.637-0.737,4.95-2.05L164.49,255.8h215.17c10.171,1.324,18.058,10.025,18.058,20.551c0,11.439-9.306,20.745-20.745,20.745H38.89   c-11.439,0-20.745-9.306-20.745-20.745C18.145,265.825,26.032,257.124,36.203,255.8z M32.742,323.878v-12.782h350.378v12.782   h-64.245c-1.856,0-3.637,0.737-4.95,2.05l-27.353,27.352l-27.352-27.352c-1.313-1.313-3.093-2.05-4.95-2.05H32.742z    M356.196,401.863H59.668c-23.976,0-43.482-19.506-43.482-43.482c0-11.306,9.198-20.503,20.503-20.503h214.684l30.251,30.251   c1.367,1.367,3.158,2.05,4.95,2.05c1.791,0,3.583-0.684,4.95-2.05l30.252-30.251h57.398c11.306,0,20.503,9.198,20.503,20.503   C399.677,382.357,380.172,401.863,356.196,401.863z"/><path d="M79.556,107c1.792,0,3.583-0.684,4.95-2.05l15-15c2.734-2.733,2.734-7.166,0-9.899c-2.733-2.733-7.166-2.733-9.899,0   l-15,15c-2.734,2.733-2.734,7.166,0,9.899C75.973,106.316,77.765,107,79.556,107z"/><path d="M160.14,107c1.792,0,3.583-0.684,4.95-2.05l15-15c2.734-2.733,2.734-7.166,0-9.899c-2.733-2.733-7.166-2.733-9.899,0   l-15,15c-2.734,2.733-2.734,7.166,0,9.899C156.557,106.316,158.348,107,160.14,107z"/><path d="M240.723,107c1.792,0,3.583-0.684,4.95-2.05l15-15c2.734-2.733,2.734-7.166,0-9.899c-2.733-2.733-7.166-2.733-9.899,0   l-15,15c-2.734,2.733-2.734,7.166,0,9.899C237.14,106.316,238.932,107,240.723,107z"/><path d="M321.306,107c1.792,0,3.583-0.684,4.95-2.05l15-15c2.734-2.733,2.734-7.166,0-9.899c-2.733-2.733-7.166-2.733-9.899,0   l-15,15c-2.734,2.733-2.734,7.166,0,9.899C317.723,106.316,319.515,107,321.306,107z"/><path d="M291.065,60.503c1.367,1.367,3.158,2.05,4.95,2.05s3.583-0.684,4.95-2.05c2.734-2.733,2.734-7.166,0-9.899l-15-15   c-2.733-2.733-7.166-2.733-9.899,0c-2.734,2.733-2.734,7.166,0,9.899L291.065,60.503z"/><path d="M210.482,60.503c1.367,1.367,3.158,2.05,4.95,2.05s3.583-0.684,4.95-2.05c2.734-2.733,2.734-7.166,0-9.899l-15-15   c-2.733-2.733-7.166-2.733-9.899,0c-2.734,2.733-2.734,7.166,0,9.899L210.482,60.503z"/><path d="M129.899,60.503c1.367,1.367,3.158,2.05,4.95,2.05s3.583-0.684,4.95-2.05c2.734-2.733,2.734-7.166,0-9.899l-15-15   c-2.733-2.733-7.166-2.733-9.899,0c-2.734,2.733-2.734,7.166,0,9.899L129.899,60.503z"/></g><g transform="matrix(0.1171872690320015 0 0 0.1171872690320015 -20 28.00000137328834)" id="L1_6"><path d="M458.03,215.786c-2.949-2.907-7.698-2.873-10.605,0.076c-2.908,2.95-2.874,7.699,0.076,10.606    c1.601,1.578,3.156,3.19,4.684,4.82c-0.426-0.357-0.859-0.704-1.294-1.036c-5.669-4.324-12.436-7.159-19.052-7.982    c-0.161-0.02-0.318-0.033-0.478-0.052c1.69-3.358,2.287-5.671,2.355-5.953c0.037-0.152,0.069-0.306,0.097-0.46    c0.916-5.144,0.727-10.315-0.522-14.865c-0.617-2.364-1.478-4.698-2.557-6.939c-0.026-0.054-0.053-0.108-0.08-0.162    c-1.103-2.156-2.479-4.284-4.098-6.339c-0.779-0.984-1.61-1.939-2.469-2.837c-0.037-0.04-0.075-0.079-0.114-0.117    c-0.845-0.846-1.771-1.677-2.839-2.546c-1.933-1.569-4.01-2.944-6.172-4.089c-0.054-0.028-0.106-0.055-0.16-0.082    c-4.587-2.289-9.422-3.549-14.406-3.748c-3.907-0.137-6.965-3.129-7.264-7.049c-0.167-2.474-0.598-4.95-1.281-7.361    c-0.011-0.039-0.022-0.077-0.034-0.116c-0.688-2.287-1.67-4.596-2.873-6.781c-2.265-4.239-5.633-8.093-10.01-11.454    c-0.056-0.043-0.112-0.085-0.169-0.126c-8.612-6.236-19.131-8.427-28.88-6.016c-3.989,0.873-7.733-1.108-9.129-4.876    c-1.771-4.695-4.549-8.912-8.257-12.534c-0.051-0.05-0.103-0.099-0.155-0.147c-3.976-3.667-8.365-6.306-13.049-7.845    c-4.707-1.684-9.811-2.302-15.151-1.834c-0.042,0.003-0.083,0.007-0.125,0.012c-5.001,0.52-9.935,2.175-14.348,4.838    c-3.412,2.119-7.665,1.383-10.279-1.721c-1.642-1.999-3.463-3.786-5.414-5.312c-0.04-0.032-0.081-0.063-0.122-0.094    c-1.965-1.473-4.118-2.763-6.402-3.834c-1.122-0.525-2.289-1.005-3.469-1.424c-0.041-0.015-0.082-0.029-0.124-0.043    c-1.402-0.471-2.738-0.78-3.785-1.005c-2.458-0.516-4.997-0.804-7.547-0.856c-0.104-0.002-0.207-0.002-0.311,0    c-2.549,0.053-5.088,0.341-7.586,0.865c-1.01,0.217-2.349,0.527-3.749,0.998c-0.04,0.014-0.081,0.028-0.121,0.042    c-1.183,0.42-2.351,0.9-3.469,1.425c-2.281,1.069-4.435,2.359-6.401,3.832c-0.042,0.032-0.084,0.064-0.126,0.097    c-1.949,1.526-3.771,3.313-5.354,5.241c-2.671,3.174-6.923,3.911-10.42,1.741c-4.331-2.613-9.264-4.268-14.265-4.788    c-0.042-0.004-0.083-0.008-0.125-0.012c-5.346-0.467-10.444,0.151-15.151,1.834c-4.685,1.539-9.074,4.179-13.05,7.847    c-0.052,0.048-0.104,0.097-0.154,0.146c-3.709,3.622-6.487,7.84-8.273,12.578c-1.38,3.726-5.125,5.706-9.115,4.832    c-9.748-2.409-20.266-0.219-28.877,6.017c-0.058,0.042-0.113,0.083-0.169,0.126c-4.378,3.361-7.745,7.215-10.01,11.455    c-0.214,0.401-0.382,0.815-0.517,1.233c-27.216,6.092-48.702,28.431-53.088,56.482l-6.574-0.869    c-6.646-0.881-13.851,1.828-19.262,7.24c-5.403,5.405-8.104,12.592-7.224,19.227l2.019,15.236C11.839,263.974,0,285.645,0,308.869    c0,22.546,10.893,43.357,29.277,56.26c8.145,27.912,33.97,48.371,64.506,48.371h286.359c4.143,0,7.5-3.358,7.5-7.5    c0-4.142-3.357-7.5-7.5-7.5H93.782c-28.779,0-52.193-23.382-52.193-52.123c0-90.708,73.09-165.968,162.93-167.766    c45.124-0.905,87.741,15.974,119.928,47.523c32.139,31.501,49.838,73.614,49.838,118.581c0,17.638,6.687,33.742,17.653,45.929    c0.298,0.401,0.64,0.778,1.027,1.124c0.03,0.027,0.063,0.05,0.094,0.076c12.565,13.317,30.363,21.654,50.084,21.654    c37.969,0,68.858-30.856,68.858-68.784C512,295.88,492.833,250.092,458.03,215.786z M26.638,342.244    C19.194,332.884,15,321.212,15,308.869c0-15.634,6.865-30.371,18.42-40.481l0.496,3.745c0.489,3.69,2.054,6.928,4.428,9.404    C31.098,300.754,27.103,321.228,26.638,342.244z M47.575,261.021l-3.566-26.904c-0.263-1.978,0.9-4.588,2.962-6.651    c2.069-2.07,4.695-3.237,6.687-2.975l17.248,2.281C61.785,237.372,53.976,248.856,47.575,261.021z M83.684,213.331l-6.618-0.875    c4.181-25.644,26.673-45.113,53.15-45.113c7.826,0,15.426,1.67,22.407,4.872C127.099,180.435,103.6,194.372,83.684,213.331z     M204.218,163.615c-5.684,0.114-11.323,0.499-16.907,1.134l8.788-11.456c1.219-1.589,3.897-2.616,6.824-2.616    c2.928,0,5.606,1.027,6.825,2.617l8.092,10.55C213.328,163.602,208.785,163.525,204.218,163.615z M221.651,144.161    c-4.076-5.314-11.077-8.487-18.728-8.487c-7.649,0-14.65,3.173-18.727,8.487l-15.369,20.036    c-9.852-6.687-21.111-10.655-32.92-11.619c4.799-3.06,10.343-4.091,15.406-2.824c0.056,0.014,0.111,0.027,0.167,0.04    c11.392,2.578,22.554-3.413,26.545-14.198c0.979-2.598,2.536-4.959,4.628-7.021c2.383-2.181,4.921-3.718,7.545-4.569    c0.081-0.026,0.16-0.053,0.24-0.082c2.618-0.948,5.659-1.309,8.801-1.043c2.801,0.3,5.567,1.235,7.925,2.656    c9.748,6.051,22.25,4.003,29.781-4.943c0.929-1.131,1.94-2.131,3.006-2.973c1.132-0.84,2.38-1.583,3.713-2.208    c0.662-0.311,1.354-0.596,2.058-0.849c0.679-0.224,1.458-0.401,2.028-0.524c1.501-0.314,3.056-0.495,4.625-0.537    c1.568,0.042,3.122,0.222,4.584,0.528c0.895,0.193,1.537,0.358,2.068,0.533c0.703,0.252,1.396,0.538,2.059,0.848    c1.332,0.625,2.58,1.368,3.71,2.208c1.066,0.841,2.077,1.841,3.063,3.042c7.475,8.876,19.976,10.927,29.643,4.923    c2.438-1.47,5.204-2.405,8.006-2.706c3.143-0.265,6.183,0.096,8.803,1.044c0.079,0.028,0.159,0.056,0.239,0.082    c2.624,0.851,5.162,2.388,7.545,4.568c2.091,2.062,3.647,4.423,4.611,6.98c4.011,10.828,15.183,16.816,26.56,14.24    c0.056-0.013,0.111-0.026,0.167-0.04c5.436-1.36,11.426-0.076,16.452,3.53c2.629,2.034,4.591,4.241,5.874,6.642    c0.729,1.324,1.293,2.634,1.678,3.895c0.389,1.388,0.635,2.809,0.734,4.288c0.882,11.548,10.21,20.561,21.664,20.963    c2.784,0.111,5.54,0.831,8.189,2.14c1.274,0.681,2.505,1.5,3.65,2.43c0.63,0.513,1.164,0.987,1.629,1.448    c0.518,0.545,1.019,1.124,1.482,1.709c0.987,1.252,1.819,2.528,2.474,3.792c0.642,1.345,1.152,2.738,1.542,4.228    c0.66,2.407,0.764,5.17,0.303,8.012c-0.567,1.815-4.984,13.947-23.354,21.245c-6.427-3.718-13.526-6.426-21.099-7.908    l4.351-16.217c2.081-7.758-0.067-15.784-5.747-21.468c-5.688-5.691-13.727-7.845-21.503-5.767l-19.532,5.227    c-7.256-30.915-34.828-52.966-67.016-52.966c-14.688,0-28.67,4.558-40.495,13.172L221.651,144.161z M308.974,194.164    c-0.027,0.007-0.053,0.017-0.08,0.024c-21.239-14.283-45.131-23.804-70.392-28.056l-4.66-6.075    c9.178-6.591,19.997-10.079,31.361-10.079c25.332,0,47.014,17.445,52.526,41.843L308.974,194.164z M364.513,206.065l-8.95,33.361    c-6.102-8.491-12.985-16.521-20.617-24.002c-3.494-3.425-7.104-6.683-10.814-9.788l31.497-8.429    c3.653-0.979,6.124,0.988,7.015,1.88C363.531,199.974,365.489,202.431,364.513,206.065z M366.255,256.207    c0.52-1.135,0.957-2.312,1.285-3.534l3.216-11.987c25.513,4.488,44.434,26.794,44.434,52.961    c0,18.847-10.036,36.346-25.979,46.016C388.404,309.943,380.479,281.492,366.255,256.207z M402.287,374.421    c-0.043,0.016-0.087,0.032-0.13,0.048c-1.013,0.385-1.987,0.833-2.927,1.333c-4.17-5.857-7.199-12.574-8.753-19.835    c0.04-0.018,0.082-0.03,0.122-0.049c24.05-11.297,39.589-35.739,39.589-62.27c0-19.209-7.982-36.785-20.946-49.365    c4.04-2.227,7.426-4.659,10.276-7.128c3.243-0.462,6.667-0.469,10.466,0.002c4.025,0.499,8.218,2.283,11.815,5.027    c0.235,0.179,0.466,0.363,0.692,0.552c1.084,0.95,2.096,2.026,3.003,3.195c0.451,0.583,0.88,1.191,1.273,1.809    c0.352,0.589,0.689,1.23,1.028,1.945c0.655,1.392,1.179,2.836,1.557,4.292c0.31,1.307,0.49,2.749,0.536,4.222    c0.035,1.651-0.061,2.974-0.308,4.189c-0.285,1.426-0.715,2.817-1.268,4.111c-1.075,2.494-1.661,5.149-1.786,8.037    c-0.134,2.467,0.175,4.943,0.972,7.787c0.615,2.315,1.712,4.64,3.327,7.069c1.458,2.221,3.375,4.23,5.699,5.973    c1.062,0.828,2.062,1.817,2.976,2.942c0.773,1.026,1.487,2.258,2.179,3.76c0.525,1.304,0.943,2.78,1.244,4.394    c0.178,1.53,0.326,3.275,0.171,4.802c-0.17,1.552-0.417,3.335-0.959,4.79c-0.021,0.054-0.04,0.109-0.059,0.164    c-0.275,0.794-0.585,1.575-0.922,2.32c-0.315,0.646-0.75,1.349-1.099,1.899c-0.459,0.706-0.877,1.289-1.274,1.777    c-0.493,0.556-1.01,1.082-1.531,1.56c-0.54,0.494-1.058,0.919-1.578,1.298c-0.58,0.384-1.178,0.734-1.796,1.05    c-2.298,1.185-4.398,2.724-6.42,4.706c-0.03,0.03-0.061,0.06-0.091,0.09c-0.947,0.961-1.809,2.009-2.561,3.116    c-0.823,1.159-1.454,2.199-1.976,3.26c-0.618,1.228-1.036,2.413-1.395,3.513c-0.433,1.279-0.75,2.619-0.944,3.982    c-0.006,0.046-0.012,0.091-0.018,0.137c-0.353,2.853-0.302,5.461,0.151,7.955c0.129,0.721,0.212,1.396,0.247,2.008    c0.017,0.682-0.007,1.384-0.067,2.075c-0.068,0.756-0.168,1.466-0.298,2.113c-0.176,0.71-0.395,1.435-0.671,2.211    c-0.952,2.758-2.774,5.458-5.274,7.812c-1.199,1.073-2.524,2.029-3.94,2.842c-1.402,0.708-2.878,1.395-4.233,1.718    c-0.054,0.013-0.108,0.027-0.162,0.041c-2.801,0.735-5.684,0.749-8.335,0.037c-2.53-0.725-5.144-1.013-7.991-0.879    C406.737,372.945,404.044,373.79,402.287,374.421z M443.142,398.501c-12.044,0-23.177-3.97-32.157-10.666    c1.041-0.02,1.946,0.08,2.797,0.328c0.041,0.012,0.083,0.024,0.125,0.035c5.173,1.406,10.723,1.416,16.052,0.03    c2.894-0.703,5.468-1.905,7.607-2.99c0.1-0.051,0.199-0.104,0.297-0.159c2.441-1.38,4.726-3.022,6.791-4.882    c0.035-0.032,0.07-0.064,0.105-0.097c4.304-4.028,7.505-8.841,9.233-13.853c0.442-1.243,0.82-2.509,1.124-3.763    c0.019-0.079,0.036-0.157,0.053-0.236c0.258-1.241,0.452-2.568,0.577-3.959c0.114-1.31,0.154-2.625,0.118-3.911    c-0.002-0.056-0.004-0.112-0.007-0.168c-0.064-1.262-0.221-2.599-0.471-3.992c-0.181-0.994-0.191-2.07-0.035-3.381    c0.065-0.434,0.166-0.852,0.3-1.244c0.012-0.034,0.022-0.068,0.034-0.103c0.18-0.553,0.37-1.113,0.548-1.463    c0.018-0.035,0.035-0.07,0.053-0.105c0.161-0.331,0.416-0.739,0.78-1.247c0.044-0.062,0.087-0.124,0.129-0.187    c0.236-0.351,0.509-0.687,0.813-1c0.917-0.891,1.813-1.557,2.724-2.026c1.156-0.592,2.299-1.266,3.396-2.003    c0.063-0.042,0.125-0.085,0.187-0.129c1.026-0.735,2.054-1.571,3.062-2.492c0.953-0.873,1.88-1.821,2.755-2.817    c0.049-0.056,0.098-0.113,0.146-0.17c0.786-0.951,1.557-2.012,2.396-3.303c0.638-1.002,1.379-2.213,2.04-3.591    c0.021-0.044,0.042-0.089,0.063-0.134c0.532-1.168,1.02-2.387,1.45-3.623c1.098-2.984,1.528-6.003,1.787-8.363    c0.318-3.132,0.05-6.125-0.22-8.382c-0.018-0.145-0.039-0.29-0.064-0.433c-0.501-2.793-1.25-5.413-2.227-7.786    c-0.034-0.083-0.07-0.167-0.107-0.249c-1.199-2.638-2.517-4.882-4.029-6.861c-0.037-0.049-0.075-0.098-0.114-0.146    c-1.678-2.087-3.559-3.942-5.588-5.513c-0.036-0.027-0.071-0.055-0.107-0.082c-0.933-0.695-1.689-1.465-2.215-2.265    c-0.722-1.086-1.163-1.958-1.348-2.666c-0.013-0.047-0.025-0.094-0.039-0.141c-0.348-1.235-0.49-2.177-0.443-3.047    c0.05-1.145,0.228-2.016,0.588-2.851c0.969-2.268,1.706-4.654,2.188-7.065c0.463-2.275,0.659-4.719,0.598-7.542    c-0.078-2.587-0.401-5.074-0.959-7.394c-0.009-0.037-0.018-0.074-0.027-0.111c-0.613-2.39-1.465-4.748-2.536-7.024    c-0.573-1.211-1.156-2.305-1.781-3.344c-0.029-0.048-0.059-0.097-0.089-0.145c-0.222-0.352-0.461-0.697-0.696-1.044    C483.542,268.477,497,305.527,497,344.717C497,374.374,472.839,398.501,443.142,398.501z"/><circle cx="139" cy="255" r="7"/><circle cx="103" cy="285" r="7"/><circle cx="163" cy="309" r="7"/><circle cx="104" cy="249" r="7"/><circle cx="194" cy="219" r="7"/><circle cx="224" cy="289" r="7"/><circle cx="254" cy="239" r="7"/><circle cx="324" cy="299" r="7"/></g><g transform="matrix(0.1171877309679985 0 0 0.1171877309679985 167 217.9999995279303)" id="L1_7"><path d="M96.151,326.318c-3.386-3.375-8.88-3.372-12.269,0.005c-3.389,3.378-3.391,8.852-0.005,12.227    c3.387,3.375,8.879,3.373,12.269-0.005C99.535,335.167,99.537,329.693,96.151,326.318z"/><path d="M91.224,380.12c-3.388-3.375-8.88-3.373-12.27,0.004c-3.389,3.378-3.391,8.852-0.004,12.227    c3.386,3.375,8.879,3.373,12.269-0.004C94.608,388.969,94.61,383.495,91.224,380.12z"/><path d="M159.938,350.748c-3.387-3.374-8.879-3.372-12.269,0.005c-3.389,3.378-3.391,8.852-0.005,12.227s8.879,3.373,12.269-0.005    C163.322,359.597,163.324,354.123,159.938,350.748z"/><path d="M62.608,349.97c-3.387-3.375-8.88-3.372-12.269,0.005c-3.389,3.378-3.391,8.852-0.004,12.227    c3.386,3.375,8.879,3.373,12.269-0.005C65.993,358.819,65.995,353.345,62.608,349.97z"/><path d="M111.72,252.135c-3.388-3.375-8.88-3.373-12.27,0.005c-3.389,3.378-3.391,8.852-0.004,12.227    c3.386,3.375,8.879,3.373,12.269-0.005C115.104,260.984,115.106,255.51,111.72,252.135z"/><path d="M193.497,284.71c-3.387-3.375-8.879-3.373-12.269,0.005c-3.39,3.378-3.391,8.852-0.005,12.227    c3.386,3.375,8.879,3.373,12.269-0.005S196.884,288.085,193.497,284.71z"/><path d="M177.164,219.505c-3.386-3.375-8.879-3.373-12.269,0.005c-3.389,3.378-3.391,8.852-0.004,12.227    c3.386,3.375,8.879,3.373,12.269-0.005C180.548,228.354,180.55,222.88,177.164,219.505z"/><path d="M283.495,211.314c-3.386-3.375-8.879-3.373-12.269,0.005c-3.389,3.378-3.391,8.852-0.005,12.227    c3.387,3.374,8.88,3.372,12.269-0.005C286.879,220.163,286.881,214.689,283.495,211.314z"/><path d="M508.204,157.246c-0.334-4.542-1.655-8.878-3.86-12.763c-2.718-7.73-6.135-15.525-10.238-23.294l8.533-8.504    c5.775-5.755,8.955-13.432,8.955-21.618c0-8.186-3.18-15.864-8.955-21.618c-8.053-8.027-19.559-10.654-29.887-7.772    c-1.371-5.013-4.202-9.877-8.272-13.95c-6.756-6.76-15.69-10.146-23.896-9.06l-2.994,0.397c1.578-9.465-1.335-19.467-8.541-26.648    c-11.93-11.89-31.343-11.89-43.274,0l-6.736,6.714c-17.819-6.308-35.38-8.901-51.059-7.491    c-18.143,1.632-33.875,8.616-45.494,20.196L20.658,292.78C7.144,306.249,0,324.914,0,346.758    c0,37.83,21.459,81.801,57.403,117.624c19.767,19.7,45.728,29.548,71.702,29.547c3.308,0,6.615-0.162,9.911-0.482    c-0.094,0.228-0.179,0.462-0.252,0.704c-1.197,3.966,1.047,8.151,5.012,9.348c11.097,3.351,21.729,5.002,31.6,5.002    c18.258,0,33.893-5.655,44.939-16.665L453.841,259.1c14.741-2.713,27.562-9.136,37.5-19.04    c13.954-13.907,21.09-33.269,20.638-55.996C511.808,175.413,510.52,166.416,508.204,157.246z M472.642,77.963    c6.072-3.853,14.172-3.107,19.41,2.113c2.93,2.919,4.543,6.823,4.543,10.991c0,4.169-1.613,8.073-4.543,10.993l-13.204,13.16    c-2.094-4.863-5.102-9.331-8.926-13.142c-0.138-0.137-0.293-0.27-0.434-0.407L472.642,77.963z M399.365,162.381l21.969-2.911    c4.146-0.551,9.604,3.239,11.704,8.104c0.656,1.521,0.913,3.004,0.741,4.291l-2.768,20.803c-0.546,4.106,2.34,7.878,6.445,8.424    c0.336,0.044,0.669,0.066,0.999,0.066c3.702,0,6.923-2.742,7.425-6.512l2.768-20.802c0.308-2.312,0.21-4.708-0.256-7.096    l18.264-18.202c2.373-2.365,5.422-3.868,8.817-4.347c4.964-0.702,9.806,0.884,13.281,4.348c0.752,0.75,1.414,1.566,1.987,2.433    c0.964,2.842,1.808,5.664,2.552,8.467c0,0.031,0.004,0.062,0.004,0.093c0,4.169-1.614,8.073-4.543,10.993l-49.123,48.957    c-9.361,0.382-20.311-1.53-31.907-5.72c0.671-0.672,1.239-1.468,1.627-2.399C415.88,195.729,411.839,176.429,399.365,162.381z     M429.051,55.655c0.121-0.121,0.241-0.248,0.362-0.373l13.142-1.743c3.557-0.472,7.89,1.365,11.315,4.793    c3.403,3.405,5.227,7.705,4.759,11.221l-0.447,3.357c0,0.002,0,0.003,0,0.005l-2.632,19.784    c-3.587-1.407-7.367-2.331-11.255-2.717c-4.119-0.407-7.795,2.6-8.204,6.723c-0.409,4.122,2.601,7.795,6.722,8.205    c5.158,0.512,10.027,2.464,14.084,5.648c0.899,0.706,1.696,1.407,2.437,2.145c4.729,4.714,7.536,10.975,7.902,17.63    c0.01,0.181,0.01,0.363,0.016,0.544c-4.189,1.497-7.991,3.865-11.182,7.046l-15.092,15.04c-5.582-5.763-13.3-9.084-20.697-8.438    c1.469-6.177,2.566-12.777,3.257-19.739c0.561-5.67,0.847-11.516,0.849-17.378c0-0.281-0.004-0.56-0.008-0.839l-0.005-0.46    c-0.058-8.683-0.729-17.175-1.994-25.241c-0.844-5.381-1.944-10.505-3.28-15.296L429.051,55.655z M396.363,23.044    c6.093-6.072,16.006-6.073,22.099-0.001c5.553,5.534,6.091,14.369,1.253,20.546c-0.467,0.595-0.864,1.052-1.253,1.439    l-5.075,5.058c-6.082-12.62-14.118-19.841-23.299-20.788L396.363,23.044z M375.731,57.415c3.806-8.159,8.506-13.228,12.268-13.23    H388c4.226,0.001,10.653,6.667,15.491,21.56c1.711,5.267,3.08,11.137,4.069,17.446c1.149,7.332,1.76,15.076,1.813,23.019    l0.013,1.194c-0.002,5.37-0.263,10.721-0.775,15.901c-0.84,8.468-2.323,16.29-4.398,23.301l-20.032,2.654l12.122-12.081    c5.774-5.754,8.955-13.431,8.955-21.616c0-8.186-3.18-15.864-8.955-21.619c-7.635-7.61-18.38-10.366-28.281-8.172    C369.535,74.838,372.175,65.04,375.731,57.415z M314.547,88.285c0.477-0.475,1.049-0.953,1.799-1.503    c6.174-4.524,14.901-3.878,20.3,1.503c5.391,5.372,6.039,14.054,1.509,20.192c-0.551,0.746-1.03,1.315-1.509,1.792    c-2.935,2.924-2.942,7.673-0.019,10.607c1.465,1.471,3.389,2.206,5.313,2.206c1.915,0,3.83-0.729,5.294-2.188    c0.256-0.255,0.509-0.519,0.761-0.792c0.07-0.076,0.139-0.159,0.209-0.236c0.183-0.203,0.365-0.405,0.547-0.619    c0.003-0.004,0.007-0.008,0.01-0.012c0.033-0.024,0.063-0.057,0.095-0.081c0.287-0.214,0.567-0.443,0.828-0.703l13.926-13.878    c0.103-0.101,0.212-0.19,0.319-0.283l0.349-0.307c6.179-5.492,15.595-5.236,21.435,0.585c2.93,2.92,4.543,6.824,4.543,10.993    s-1.613,8.072-4.543,10.991l-18.558,18.496c-1.457-0.177-2.926-0.283-4.4-0.323c-0.161-0.014-0.322-0.029-0.485-0.032    c-0.186-0.002-0.362-0.001-0.565,0.004c-0.011,0-0.022,0.002-0.034,0.002c-0.58,0-1.154,0.007-1.729,0.027h-0.005    c-0.001,0-0.004,0-0.005,0h-0.006l-0.104,0.004c0,0-0.006,0-0.009,0c-0.05,0.002-0.099,0.004-0.149,0.005    c-0.229,0.009-0.459,0.018-0.688,0.031l-0.006,0.001c-0.277,0.016-0.553,0.036-0.828,0.058c-0.333,0.027-0.664,0.058-0.996,0.091    h-0.007l-0.196,0.019c-0.006,0-0.012,0.001-0.012,0.001l-0.011,0.001c-0.236,0.022-0.471,0.046-0.706,0.075    c-0.001,0-0.002,0-0.002,0h-0.004c-0.003,0-0.007,0.001-0.007,0.001c-0.01,0.001-0.017,0.003-0.024,0.004    c-0.646,0.079-1.285,0.18-1.923,0.289c-0.001,0-0.003,0.001-0.003,0.001h-0.002l-0.13,0.02c-0.217,0.034-0.435,0.068-0.648,0.109    c-4.067,0.779-6.745,4.709-5.967,8.777c0.687,3.593,3.821,6.096,7.348,6.096c0.465,0,0.938-0.043,1.412-0.134l0.519-0.083    c0.001,0,0.002-0.001,0.004-0.001c0.415-0.071,0.83-0.139,1.251-0.191l0.005-0.001l0.594-0.059    c0.386-0.039,0.772-0.074,1.157-0.097c0.017-0.001,0.034-0.003,0.051-0.004c0.172-0.01,0.346-0.016,0.52-0.022l0.096-0.003h0.004    c0.349-0.013,0.7-0.018,1.05-0.018c0.058,0,0.119-0.004,0.176-0.003l0.326,0.005c2.072,0.033,4.136,0.269,6.133,0.699    c3.17,0.684,6.296,1.846,9.293,3.454c3.311,1.777,6.362,4.047,9.071,6.745c9.967,9.934,13.581,23.995,8.992,34.99    c-0.374,0.897-0.554,1.824-0.572,2.74c-1.364-0.665-2.728-1.352-4.084-2.066c-6.754-3.555-14.618-2.945-20.643,0.896    c-5.022-12.08-12.429-23.174-21.978-32.691c-23.252-23.173-39.567-51.581-44.119-75.779L314.547,88.285z M303.959,77.659    l-0.628,0.626c1.015-6.956,3.551-12.612,7.568-16.887c0.81,0.17,1.659,0.215,2.527,0.099l41.696-5.524    c0.851-0.112,1.79-0.04,2.788,0.215c0.603,0.155,1.212,0.381,1.816,0.659c-3.135,8.314-5.455,18.121-6.803,28.717    c-1.429-2.872-3.326-5.55-5.689-7.905c-10.582-10.548-27.673-11.829-39.756-2.976C306.121,75.679,304.969,76.652,303.959,77.659z     M129.104,478.938c-22.134,0-44.268-8.394-61.113-25.182C34.81,420.687,15,380.688,15,346.758c0-17.769,5.618-32.76,16.246-43.352    L293.074,42.462c16.452-16.395,43.583-20.421,74.032-11.439l-9.973,9.94c-1.342-0.074-2.673-0.034-3.982,0.139l-29.162,3.863    c-0.264-0.952-0.72-1.868-1.379-2.687c-2.594-3.228-7.315-3.744-10.544-1.149l-10.587,8.507c-0.209,0.167-0.407,0.346-0.597,0.534    c-8.544,8.515-13.061,20.788-13.061,35.491c0,30.705,19.09,68.804,49.819,99.429c16.283,16.229,25.251,37.847,25.251,60.872    c0,23.052-8.985,44.702-25.302,60.963l-147.278,146.78C173.431,470.528,151.267,478.939,129.104,478.938z M480.755,229.434    c-13.439,13.392-34.087,18.712-58.137,14.983c-4.096-0.63-7.926,2.17-8.561,6.263c-0.635,4.093,2.169,7.926,6.262,8.562    c3.726,0.578,7.382,0.947,10.976,1.152L209.728,481.209c-11.962,11.923-31.965,15.307-55.504,9.588    c17.113-4.328,33.312-13.146,46.677-26.466l147.278-146.78c19.161-19.096,29.714-44.52,29.714-71.588    c0-7.723-0.863-15.31-2.536-22.655c0.394-0.441,0.747-0.93,1.037-1.475c1.426-2.683,4.78-3.709,7.47-2.292    c2.754,1.45,5.547,2.821,8.304,4.075c16.016,7.281,31.463,10.906,45.018,10.906c1.85,0,3.665-0.068,5.441-0.203    c0.088,0.003,0.177,0.013,0.265,0.013c0.566,0,1.131-0.072,1.685-0.199c11.511-1.219,21.296-5.356,28.371-12.407    c2.935-2.924,2.942-7.673,0.019-10.607c-0.646-0.649-1.385-1.146-2.17-1.509l26.155-26.067c0.008,0.272,0.027,0.548,0.032,0.82    C497.352,202.901,491.741,218.486,480.755,229.434z"/></g></defs><g fi:class="KUsePattern" opacity="0.32"><pattern id="pattern_L1_3" width="350" height="350" patternUnits="userSpaceOnUse"><use xlink:href="#L1_3" x="-350" y="-350"/><use xlink:href="#L1_3" x="0" y="-350"/><use xlink:href="#L1_3" x="350" y="-350"/><use xlink:href="#L1_3" x="-350" y="0"/><use xlink:href="#L1_3" x="0" y="0"/><use xlink:href="#L1_3" x="350" y="0"/><use xlink:href="#L1_3" x="-350" y="350"/><use xlink:href="#L1_3" x="0" y="350"/><use xlink:href="#L1_3" x="350" y="350"/></pattern><rect x="0" y="0" width="100%" height="100%" fill="url(#pattern_L1_3)"/></g><g fi:class="KUsePattern" opacity="0.32"><pattern id="pattern_L1_5" width="350" height="350" patternUnits="userSpaceOnUse"><use xlink:href="#L1_5" x="-350" y="-350"/><use xlink:href="#L1_5" x="0" y="-350"/><use xlink:href="#L1_5" x="350" y="-350"/><use xlink:href="#L1_5" x="-350" y="0"/><use xlink:href="#L1_5" x="0" y="0"/><use xlink:href="#L1_5" x="350" y="0"/><use xlink:href="#L1_5" x="-350" y="350"/><use xlink:href="#L1_5" x="0" y="350"/><use xlink:href="#L1_5" x="350" y="350"/></pattern><rect x="0" y="0" width="100%" height="100%" fill="url(#pattern_L1_5)"/></g><g fi:class="KUsePattern" opacity="0.33"><pattern id="pattern_L1_6" width="350" height="350" patternUnits="userSpaceOnUse"><use xlink:href="#L1_6" x="-350" y="-350"/><use xlink:href="#L1_6" x="0" y="-350"/><use xlink:href="#L1_6" x="350" y="-350"/><use xlink:href="#L1_6" x="-350" y="0"/><use xlink:href="#L1_6" x="0" y="0"/><use xlink:href="#L1_6" x="350" y="0"/><use xlink:href="#L1_6" x="-350" y="350"/><use xlink:href="#L1_6" x="0" y="350"/><use xlink:href="#L1_6" x="350" y="350"/></pattern><rect x="0" y="0" width="100%" height="100%" fill="url(#pattern_L1_6)"/></g><g fi:class="KUsePattern" opacity="0.34"><pattern id="pattern_L1_7" width="350" height="350" patternUnits="userSpaceOnUse"><use xlink:href="#L1_7" x="-350" y="-350"/><use xlink:href="#L1_7" x="0" y="-350"/><use xlink:href="#L1_7" x="350" y="-350"/><use xlink:href="#L1_7" x="-350" y="0"/><use xlink:href="#L1_7" x="0" y="0"/><use xlink:href="#L1_7" x="350" y="0"/><use xlink:href="#L1_7" x="-350" y="350"/><use xlink:href="#L1_7" x="0" y="350"/><use xlink:href="#L1_7" x="350" y="350"/></pattern><rect x="0" y="0" width="100%" height="100%" fill="url(#pattern_L1_7)"/></g></svg>